#!OML:ASF X:\für Bonn\!DataBase\2005_08_11_Bastian_Final\c3d\Bastian.ASF
:FULLY-SPECIFIED
:DEGREES
161
root -9.08635 16.4696 8.511 447.106 -187.58 46.5385
lowerback 37.8788 8.47929 -20.6763
upperback 3.71891 1.44301 -14.7041
thorax -14.1098 1.69523 -6.91208
lowerneck -33.5703 -1.90471 1.30944
upperneck -5.39337 -1.4987 11.3296
head 3.37637 1.13149 3.41786
rclavicle -1.03368e-013 5.24792e-014
rhumerus 83.2258 -23.5903 -45.7795
rradius 21.748
rwrist -26.0583
rhand -23.5714 -13.698
rfingers 7.12502
rthumb 2.89126 -43.6581
lclavicle -1.03368e-013 5.24792e-014
lhumerus 83.0401 24.5065 34.1872
lradius 27.8791
lwrist 50.8482
lhand -29.5402 -4.72994
lfingers 7.12502
lthumb -2.8734 25.2305
rfemur 29.1514 -26.2417 1.18931
rtibia 52.5972
rfoot 19.712 6.9076
rtoes -43.3104
lfemur -66.6676 19.9615 25.6495
ltibia 51.8131
lfoot -23.146 -0.814251
ltoes 5.35217
162
root -8.92692 16.6116 8.23531 448.083 -185.936 46.4495
lowerback 37.6882 8.60725 -20.8013
upperback 3.62933 1.53124 -14.6418
thorax -14.1487 1.71191 -6.81347
lowerneck -32.5763 -2.09403 0.939304
upperneck -6.24132 -1.51769 11.3737
head 2.99932 1.07405 3.46113
rclavicle -1.59028e-015 -2.54444e-014
rhumerus 82.545 -23.9073 -44.7211
rradius 21.7106
rwrist -29.435
rhand -23.8531 -13.6823
rfingers 7.12502
rthumb 2.6192 -43.646
lclavicle -1.59028e-015 -2.54444e-014
lhumerus 83.1264 25.2645 32.8663
lradius 28.858
lwrist 52.3146
lhand -28.6677 -4.74405
lfingers 7.12502
lthumb -2.03074 25.226
rfemur 29.9173 -25.0793 1.34234
rtibia 51.7519
rfoot 19.8454 6.72604
rtoes -43.442
lfemur -65.2615 19.6807 27.0648
ltibia 49.079
lfoot -21.6022 2.48857
ltoes -2.1527
163
root -8.76977 16.7438 7.96113 449 -184.319 46.334
lowerback 37.4606 8.69206 -20.8535
upperback 3.58123 1.62223 -14.6231
thorax -14.1284 1.7245 -6.78988
lowerneck -31.7799 -2.25996 0.664369
upperneck -6.96665 -1.55983 11.3511
head 2.68252 1.0131 3.47198
rclavicle 2.81479e-013 1.66979e-013
rhumerus 82.1109 -24.1805 -44.3242
rradius 21.6176
rwrist -32.033
rhand -23.828 -13.543
rfingers 7.12502
rthumb 2.64352 -43.5063
lclavicle 2.81479e-013 1.66979e-013
lhumerus 83.3903 25.9756 31.5972
lradius 29.3782
lwrist 53.204
lhand -28.1097 -4.97361
lfingers 7.12502
lthumb -1.49188 25.0009
rfemur 30.7276 -23.7971 1.58811
rtibia 50.8417
rfoot 20.1255 6.66692
rtoes -43.2157
lfemur -64.0148 19.4412 28.3486
ltibia 46.6528
lfoot -19.7908 5.55192
ltoes -8.63363
164
root -8.61654 16.8616 7.68814 449.848 -182.723 46.2433
lowerback 37.1925 8.75808 -20.8736
upperback 3.55564 1.72538 -14.599
thorax -14.0671 1.74007 -6.77245
lowerneck -31.528 -2.35826 0.507873
upperneck -7.24581 -1.61083 11.1511
head 2.56304 0.960669 3.41934
rclavicle -6.52014e-014 -7.15625e-014
rhumerus 81.9317 -24.3375 -44.4005
rradius 21.4587
rwrist -33.9313
rhand -23.6161 -13.3259
rfingers 7.12502
rthumb 2.84807 -43.2866
lclavicle -6.52014e-014 -7.15625e-014
lhumerus 82.3359 26.8711 28.4882
lradius 30.736
lwrist 55.2905
lhand -28.5779 -4.9967
lfingers 7.12502
lthumb -1.94408 24.9742
rfemur 31.5395 -22.2453 2.00347
rtibia 49.9066
rfoot 20.583 6.72769
rtoes -42.7052
lfemur -62.8347 19.2385 29.534
ltibia 44.6057
lfoot -17.9518 8.48928
ltoes -13.1369
165
root -8.46475 16.9714 7.41603 450.632 -181.133 46.1599
lowerback 36.9224 8.79723 -20.8116
upperback 3.54234 1.83151 -14.6182
thorax -13.9947 1.7522 -6.84068
lowerneck -31.1803 -2.56504 0.288015
upperneck -7.86656 -1.72298 11.1026
head 2.33424 0.900891 3.41755
rclavicle -1.33583e-013 -3.97569e-014
rhumerus 81.7759 -24.4324 -44.5405
rradius 21.2254
rwrist -35.5803
rhand -23.3743 -13.205
rfingers 7.12502
rthumb 3.08167 -43.1625
lclavicle -1.33583e-013 -3.97569e-014
lhumerus 81.6727 27.5915 25.9682
lradius 31.6499
lwrist 56.4254
lhand -29.2478 -5.32103
lfingers 7.12502
lthumb -2.59105 24.643
rfemur 32.2742 -20.4759 2.61984
rtibia 49.0235
rfoot 21.1034 7.1206
rtoes -42.1119
lfemur -61.7856 19.1349 30.5283
ltibia 43.0187
lfoot -16.0025 11.4916
ltoes -15.9234
166
root -8.31221 17.077 7.14315 451.361 -179.571 46.083
lowerback 36.6406 8.83929 -20.774
upperback 3.52159 1.93584 -14.6029
thorax -13.9245 1.76671 -6.85679
lowerneck -31.014 -2.78763 -0.000606206
upperneck -8.41479 -1.83741 11.0545
head 2.15109 0.855248 3.43131
rclavicle 2.13097e-013 1.59028e-015
rhumerus 81.6311 -24.3601 -44.6355
rradius 20.9948
rwrist -37.0087
rhand -23.1779 -13.1
rfingers 7.12502
rthumb 3.27128 -43.0546
lclavicle 2.13097e-013 1.59028e-015
lhumerus 81.93 28.0893 25.1685
lradius 31.901
lwrist 55.8575
lhand -29.6773 -5.80768
lfingers 7.12502
lthumb -3.00578 24.1509
rfemur 32.9385 -18.72 3.27882
rtibia 48.223
rfoot 21.4248 8.34986
rtoes -42.5308
lfemur -60.9547 19.1875 31.178
ltibia 41.9981
lfoot -13.8847 14.4976
ltoes -16.0301
167
root -8.16005 17.1717 6.87105 452.063 -178.015 45.994
lowerback 36.2792 8.82311 -20.6646
upperback 3.51664 2.02677 -14.6259
thorax -13.8086 1.77165 -6.9321
lowerneck -30.96 -0.587174 -1.74404
upperneck -9.41089 -2.28859 10.6699
head 1.86095 -1.69799 3.45986
rclavicle 2.38542e-014 7.63333e-014
rhumerus 81.4964 -24.135 -44.7622
rradius 20.7526
rwrist -38.2901
rhand -23.1081 -13.075
rfingers 7.12502
rthumb 3.33869 -43.0286
lclavicle 2.38542e-014 7.63333e-014
lhumerus 82.6981 28.4075 25.269
lradius 31.7716
lwrist 54.4657
lhand -29.966 -6.51172
lfingers 7.12502
lthumb -3.28465 23.4427
rfemur 33.5824 -16.9758 3.93854
rtibia 47.5143
rfoot 21.4931 9.99665
rtoes -43.3349
lfemur -60.372 19.4522 31.4828
ltibia 41.6294
lfoot -12.0416 17.0741
ltoes -13.3895
168
root -8.01035 17.2446 6.6043 452.715 -176.487 45.8989
lowerback 35.7914 8.75545 -20.4709
upperback 3.53988 2.13676 -14.6697
thorax -13.6133 1.77985 -7.06043
lowerneck -30.9862 -0.876526 -2.23282
upperneck -9.8969 -2.44987 10.7569
head 1.72957 -1.78426 3.55481
rclavicle -1.30403e-013 -6.83819e-014
rhumerus 81.4114 -23.7261 -45.0678
rradius 20.5834
rwrist -39.3697
rhand -23.1307 -13.1683
rfingers 7.12502
rthumb 3.31692 -43.1223
lclavicle -1.30403e-013 -6.83819e-014
lhumerus 84.013 28.5346 26.4273
lradius 31.2953
lwrist 52.2377
lhand -29.8714 -7.23562
lfingers 7.12502
lthumb -3.19331 22.7202
rfemur 34.2929 -15.1608 4.49587
rtibia 46.865
rfoot 21.3956 11.6445
rtoes -43.8935
lfemur -59.983 19.829 31.5868
ltibia 42.0446
lfoot -10.4637 18.616
ltoes -7.6333
169
root -7.86647 17.2985 6.34624 453.348 -174.957 45.7786
lowerback 35.0901 8.57215 -20.0664
upperback 3.61096 2.26369 -14.7696
thorax -13.285 1.78397 -7.3267
lowerneck -30.5246 -1.28221 -3.01738
upperneck -10.6934 -2.62331 11.0552
head 1.46002 -1.88038 3.76643
rclavicle -1.47101e-013 1.20861e-013
rhumerus 81.2955 -23.1594 -45.351
rradius 20.4217
rwrist -40.4302
rhand -23.25 -13.2452
rfingers 7.12502
rthumb 3.20165 -43.2009
lclavicle -1.47101e-013 1.20861e-013
lhumerus 85.3438 28.5793 27.7358
lradius 30.7811
lwrist 50.107
lhand -29.6132 -8.03036
lfingers 7.12502
lthumb -2.94395 21.9291
rfemur 35.0286 -13.3516 4.96304
rtibia 46.2715
rfoot 21.478 12.7033
rtoes -43.8186
lfemur -59.8549 20.3362 31.5562
ltibia 43.318
lfoot -9.08746 19.1051
ltoes -0.766003
170
root -7.7232 17.345 6.09234 453.968 -173.456 45.6322
lowerback 34.4596 8.41939 -19.7489
upperback 3.62925 2.35354 -14.8455
thorax -13.0383 1.78156 -7.52504
lowerneck -30.561 -1.71145 -3.7736
upperneck -11.154 -2.88654 11.372
head 1.36045 -1.99483 3.97124
rclavicle 7.31528e-014 -2.70347e-014
rhumerus 81.0013 -22.5421 -45.2997
rradius 20.3634
rwrist -41.8286
rhand -23.4218 -13.3327
rfingers 7.12502
rthumb 3.03571 -43.2908
lclavicle 7.31528e-014 -2.70347e-014
lhumerus 86.6763 28.5575 29.1834
lradius 30.269
lwrist 48.0119
lhand -29.1475 -8.72482
lfingers 7.12502
lthumb -2.49414 21.2403
rfemur 35.7105 -11.5888 5.42003
rtibia 45.7911
rfoot 21.7934 12.8554
rtoes -43.218
lfemur -60.0161 21.0917 31.2256
ltibia 45.3746
lfoot -7.6986 18.846
ltoes 4.26229
171
root -7.57733 17.386 5.83918 454.582 -171.977 45.4471
lowerback 33.7192 8.23864 -19.4219
upperback 3.70247 2.44461 -14.941
thorax -12.7876 1.7821 -7.63496
lowerneck -30.7315 -2.08375 -4.37771
upperneck -11.5025 -3.13918 11.5315
head 1.30324 -2.10628 4.10125
rclavicle 7.23576e-014 -5.00937e-014
rhumerus 80.5515 -21.8568 -44.8204
rradius 20.3822
rwrist -43.584
rhand -23.6655 -13.4193
rfingers 7.12502
rthumb 2.80039 -43.3807
lclavicle 7.23576e-014 -5.00937e-014
lhumerus 87.559 28.5948 30.2089
lradius 30.0123
lwrist 46.4306
lhand -28.5632 -9.30211
lfingers 7.12502
lthumb -1.92981 20.6689
rfemur 36.2885 -9.98326 5.81474
rtibia 45.5039
rfoot 21.7428 13.1213
rtoes -42.9424
lfemur -60.3548 21.9836 30.6932
ltibia 48.0511
lfoot -6.60863 17.9825
ltoes 8.36088
172
root -7.4346 17.4199 5.59274 455.192 -170.519 45.2057
lowerback 33.0513 8.07556 -19.1565
upperback 3.66312 2.4928 -14.958
thorax -12.5859 1.77223 -7.72562
lowerneck -31.1958 -2.40569 -4.77979
upperneck -11.587 -3.415 11.5746
head 1.35555 -2.22032 4.15535
rclavicle 7.79236e-014 4.13472e-014
rhumerus 79.9751 -21.0693 -44.14
rradius 20.4655
rwrist -45.456
rhand -23.9542 -13.41
rfingers 7.12502
rthumb 2.52157 -43.3748
lclavicle 7.79236e-014 4.13472e-014
lhumerus 88.1523 28.5455 30.9247
lradius 29.9584
lwrist 45.1367
lhand -28.0117 -9.66976
lfingers 7.12502
lthumb -1.39726 20.3054
rfemur 36.7004 -8.56983 6.0211
rtibia 45.4683
rfoot 21.668 13.0765
rtoes -42.2465
lfemur -60.7866 22.9052 30.11
ltibia 51.1723
lfoot -5.68908 16.5683
ltoes 13.9133
173
root -7.2881 17.4486 5.34734 455.815 -169.108 44.8962
lowerback 32.3881 7.91719 -18.9653
upperback 3.57875 2.5057 -14.9265
thorax -12.4321 1.75552 -7.71896
lowerneck -31.8637 -2.67801 -5.02157
upperneck -11.4479 -3.69338 11.5173
head 1.49292 -2.32854 4.14682
rclavicle -2.22639e-014 -6.59965e-014
rhumerus 79.2975 -20.1833 -43.1784
rradius 20.5963
rwrist -47.4095
rhand -24.2615 -13.4214
rfingers 7.12502
rthumb 2.22482 -43.3896
lclavicle -2.22639e-014 -6.59965e-014
lhumerus 88.0449 28.5838 30.8488
lradius 30.2834
lwrist 44.5452
lhand -27.5892 -9.84734
lfingers 7.12502
lthumb -0.989164 20.1301
rfemur 36.9118 -7.2971 6.21331
rtibia 45.6859
rfoot 21.6111 12.5492
rtoes -41.5041
lfemur -61.2183 23.8689 29.4558
ltibia 54.5243
lfoot -4.65668 14.6562
ltoes 14.8141
